<?xml version="1.0" standalone="no"?>
<!DOCTYPE svg PUBLIC "-//W3C//DTD SVG 1.1//EN" "http://www.w3.org/Graphics/SVG/1.1/DTD/svg11.dtd" >
<svg xmlns="http://www.w3.org/2000/svg" xmlns:xlink="http://www.w3.org/1999/xlink" version="1.1" viewBox="-10 0 1016 1000">
   <path fill="currentColor"
d="M925 310q29 0 50 21t21 50v238q0 29 -21 50t-50 21h-850q-29 0 -50 -21t-21 -50v-238q0 -29 21 -50t50 -21h850zM206 610h68v-120l54 120h65l53 -120v120h69v-227h-84l-71 159l-70 -159h-84v227zM580 610h148q59 0 59 -47v-32q0 -30 -25 -41q25 -11 25 -41v-19
q0 -47 -59 -47h-148v41h126q12 0 12 10v27q0 10 -12 10h-95v41h95q12 0 12 10v37q0 10 -12 10h-126v41z" />
</svg>
